<?xml version="1.0" encoding="utf-8"?>
<!-- Generator: Adobe Illustrator 27.5.0, SVG Export Plug-In . SVG Version: 6.00 Build 0)  -->
<svg version="1.1" xmlns="http://www.w3.org/2000/svg" xmlns:xlink="http://www.w3.org/1999/xlink" x="0px" y="0px"
	 viewBox="0 0 3710 3710" style="enable-background:new 0 0 3000 3000;" xml:space="preserve">
<g id="Background">
	<g>
		<g>
			<rect style="fill:transparent;" width="3000" height="3000"/>
		</g>
	</g>
</g>
<g id="Illustration">
	<g>
		<path style="fill:transparent;" d="M1663.83,455.249c-372.919,6.587-949.897,148.377-1115.973,512.753
			c-58.004,127.263-54.077,314.354-46.224,688.535c2.309,109.981,6.136,270.282,33.017,469.179
			c55.84,413.171,93.853,694.443,237.722,858.224c360.491,410.383,1662.671,398.525,2218.74-340.299
			c303.338-403.033,350.004-976.362,72.637-1450.188C2758.375,671.777,2163.081,446.43,1663.83,455.249z"/>
		<g>
			<path style="fill:#D8DEE8;" d="M2431.496,2201.566l21.232,43.703c-17.959,13.279-34.583,27.898-49.641,43.782l-40.115-27.142
				c-10.945-7.405-25.815-4.423-33.22,6.66l-46.354,69.387c-7.42,11.109-4.571,26.148,6.372,33.592l40.513,27.562
				c-8.888,20.3-16.056,41.344-21.377,62.906l-48.968-3.351c-13.204-0.904-24.694,9.223-25.665,22.622l-6.088,83.95
				c-0.976,13.449,8.959,25.108,22.196,26.032l49.156,3.437c2.239,21.929,6.462,43.851,12.569,65.559l-44.598,22.131
				c-11.973,5.941-16.985,20.631-11.192,32.817l36.308,76.37c5.818,12.238,20.273,17.334,32.281,11.375l44.731-22.197
				c13.07,18.424,27.497,35.495,43.187,50.997l-27.784,41.973c-7.493,11.318-4.575,26.711,6.522,34.384l69.529,48.062
				c11.139,7.7,26.253,4.736,33.747-6.624l27.756-42.065c20.301,9.282,41.365,16.74,62.94,22.334l-3.304,50.655
				c-0.895,13.716,9.276,25.649,22.721,26.648l84.172,6.253c13.475,1.003,25.1-9.329,25.96-23.067l3.149-50.231
				c22.034-2.245,44.038-6.582,65.802-12.867l22.003,45.291c6.023,12.398,20.728,17.584,32.841,11.573l75.745-37.587
				c12.112-6.01,17.014-20.926,10.955-33.306l-21.959-44.867c18.385-13.51,35.35-28.442,50.706-44.668l40.749,27.722
				c11.314,7.697,26.521,4.714,33.958-6.666l46.463-71.078c7.421-11.353,4.258-26.764-7.058-34.42l-40.568-27.449
				c8.988-20.862,16.113-42.499,21.34-64.636l48.283,3.376c13.494,0.945,25.046-9.324,25.798-22.925l4.696-84.895
				c0.75-13.551-9.559-25.277-23.019-26.198l-47.802-3.27c-2.578-22.373-7.246-44.696-13.848-66.751l42.776-21.227
				c12.008-5.959,16.829-20.62,10.771-32.739l-37.809-75.625c-6.034-12.067-20.629-17.027-32.601-11.086l-42.65,21.164
				c-13.545-18.436-28.438-35.466-44.599-50.845l26.143-39.624c7.352-11.141,4.263-26.197-6.894-33.625l-69.638-46.373
				c-11.115-7.401-26.079-4.401-33.428,6.702l-26.334,39.783c-20.451-8.957-41.62-16.122-63.275-21.365l2.993-47.75
				c0.833-13.288-9.237-24.744-22.489-25.595l-82.778-5.308c-13.222-0.848-24.64,9.215-25.505,22.481l-3.125,47.895
				c-21.741,2.457-43.442,6.923-64.894,13.325l-21.189-43.292c-5.831-11.912-20.179-16.79-32.051-10.899l-74.243,36.842
				C2430.628,2175.193,2425.701,2189.636,2431.496,2201.566z M2457.922,2662.321c-59.006-122.679-8.952-270.036,111.481-329.798
				c120.431-59.761,266.698-9.824,327.024,112.2c60.691,122.763,11.459,271.808-110.295,332.226
				C2664.376,2837.367,2517.285,2785.743,2457.922,2662.321z"/>
		</g>
		<g>
			<g>
				<linearGradient id="SVGID_1_" gradientUnits="userSpaceOnUse" x1="1135.833" y1="1957.8989" x2="2635.7639" y2="1957.8989">
					<stop  offset="0" style="stop-color:#AA80F9"/>
					<stop  offset="0.9964" style="stop-color:#6165D7"/>
				</linearGradient>
				<path style="fill:url(#SVGID_1_);" d="M1867.444,893.239c-408.426-2.6-731.611,460.284-731.611,1033.817
					c0,573.534,323.185,1062.987,731.611,1093.964c419.618,31.826,768.32-429.996,768.32-1032.307S2287.062,895.91,1867.444,893.239
					z M1908.3,2967.235c-0.011,0-0.018,0-0.029,0c-12.141,0-24.469-0.47-36.643-1.391
					c-179.696-13.631-349.133-126.928-477.099-319.026c-131.141-196.864-203.363-452.479-203.363-719.762
					c0-265.985,71.557-514.447,201.492-699.615c126.192-179.838,293.592-278.879,471.36-278.879l3.072,0.01
					c92.469,0.589,182.865,27.35,268.677,79.539c84.854,51.607,161.549,125.579,227.954,219.863
					c67.544,95.9,120.705,207.52,158.005,331.757c38.953,129.745,58.704,267.347,58.704,408.981
					c0,269.041-72.128,518.855-203.097,703.419C2251.448,2869.536,2084.874,2967.235,1908.3,2967.235z"/>
				<g>
					
						<linearGradient id="SVGID_00000078765852701055059020000017329723195810704810_" gradientUnits="userSpaceOnUse" x1="578.9584" y1="1957.8966" x2="1852.0228" y2="1957.8966">
						<stop  offset="0" style="stop-color:#AA80F9"/>
						<stop  offset="0.9964" style="stop-color:#6165D7"/>
					</linearGradient>
					<path style="fill:url(#SVGID_00000078765852701055059020000017329723195810704810_);" d="M1161.524,1927.055
						c0-533.209,279.337-970.781,646.81-1027.586c-25.818-3.951-471.315-6.062-497.765-6.231
						c-408.425-2.6-731.611,460.284-731.611,1033.817c0,573.534,323.185,1062.987,731.611,1093.964
						c41.492,3.147,501.617,1.449,541.454-4.717C1463.233,2956.839,1161.524,2481.203,1161.524,1927.055z"/>
				</g>
				
					<linearGradient id="SVGID_00000036216453771487656490000005113449976647165334_" gradientUnits="userSpaceOnUse" x1="1264.4099" y1="1956.4874" x2="2608.2842" y2="1956.4874">
					<stop  offset="0" style="stop-color:#AA80F9"/>
					<stop  offset="0.9964" style="stop-color:#6165D7"/>
				</linearGradient>
				<path style="fill:url(#SVGID_00000036216453771487656490000005113449976647165334_);" d="M1297.5,891.955
					c99.598,26.949,299.187,95.98,470.461,276.916c246.453,260.355,238.078,563.914,246.288,697.875
					c6.679,108.985,69.846,681.01-332.056,975.987c-156.774,115.065-321.292,148.857-417.783,160.486
					c78.232,5.933,524.802,11.867,603.034,17.8c92.469-13.857,225.365-47.301,354.624-136.785
					c444.99-308.063,388.068-962.674,379.04-1051.351c-13.717-134.726-49.998-491.103-343.073-741.48
					c-143.73-122.79-295.992-174.611-390.591-198.164C1800.242,892.811,1364.702,892.383,1297.5,891.955z"/>
				
					<linearGradient id="SVGID_00000080914413880591766480000008216659609414834304_" gradientUnits="userSpaceOnUse" x1="1648.9385" y1="1411.3866" x2="382.1399" y2="3393.8933">
					<stop  offset="0" style="stop-color:#FF9085"/>
					<stop  offset="1" style="stop-color:#FB6FBB"/>
				</linearGradient>
				<path style="fill:url(#SVGID_00000080914413880591766480000008216659609414834304_);" d="M1285.121,891.173
					c-404.325-2.563-724.295,458.554-724.295,1029.873c0,571.317,319.969,1058.771,724.295,1089.488
					c415.359,31.555,760.489-428.515,760.489-1028.383S1700.481,893.806,1285.121,891.173z M1325.423,2956.731
					c-0.031,0-0.034,0-0.066,0c-11.957-0.003-24.085-0.465-36.044-1.373c-177.661-13.496-345.226-126.215-471.825-317.394
					c-129.828-196.053-201.327-450.658-201.327-716.918c0-264.968,70.847-512.481,199.491-696.945
					c124.845-179.016,290.381-277.605,466.114-277.605l3.003,0.009c91.373,0.58,180.709,27.188,265.527,79.087
					c83.93,51.354,159.798,124.983,225.497,218.838c66.846,95.495,119.458,206.65,156.375,330.378
					c38.557,129.222,58.106,266.273,58.106,407.343c0,268.025-71.405,516.888-201.061,700.747
					C1664.694,2859.474,1499.969,2956.731,1325.423,2956.731z"/>
			</g>
			<g>
				
					<linearGradient id="SVGID_00000016788473236322327210000007479415054474640274_" gradientUnits="userSpaceOnUse" x1="3219.8596" y1="1646.946" x2="2181.2419" y2="1858.191">
					<stop  offset="0" style="stop-color:#FF9085"/>
					<stop  offset="1" style="stop-color:#FB6FBB"/>
				</linearGradient>
				<path style="fill:url(#SVGID_00000016788473236322327210000007479415054474640274_);" d="M2558.051,1225.573l-702.59-6.234
					c-68.722-0.61-125.109,55.744-125.109,125.876v1138.828c0,70.134,27.436,107.952,125.109,126.441l77.117,5.158
					c58.91-7.467,731.611-153.297,731.611-217.15V1342.129C2664.189,1278.277,2616.961,1226.095,2558.051,1225.573z"/>
				
					<linearGradient id="SVGID_00000085949589870507599850000009837670248649962370_" gradientUnits="userSpaceOnUse" x1="1453.1852" y1="2635.7117" x2="2706.6406" y2="1491.6469">
					<stop  offset="0" style="stop-color:#AA80F9"/>
					<stop  offset="0.9964" style="stop-color:#6165D7"/>
				</linearGradient>
				<path style="fill:url(#SVGID_00000085949589870507599850000009837670248649962370_);" d="M2649.093,1225.564l-700.656-6.226
					c-68.529-0.609-124.758,55.665-124.758,125.699V2503.67c0,70.035,56.229,119.676,124.758,110.984l700.656-88.866
					c58.75-7.452,105.851-65.117,105.851-128.884v-1054.94C2754.944,1278.198,2707.844,1226.086,2649.093,1225.564z"/>
				<path style="fill:#D8DEE8;" d="M2649.093,1283.938l-700.656-1.956c-34.097-0.095-62.003,28.097-62.003,62.848v1151.647
					c0,34.751,27.906,59.652,62.003,55.535l700.656-84.597c29.42-3.552,53.22-32.466,53.22-64.476V1342.137
					C2702.313,1310.127,2678.513,1284.021,2649.093,1283.938z"/>
				<g style="opacity:0.5;">
					<path style="fill:#FFFFFF;" d="M2213.43,1964.997c-84.361-246.549,59.526-398.24-17.393-639.457
						c-11.981-37.574-27.714-72.282-46.172-104.411l-201.429-1.791c-68.529-0.608-124.757,55.665-124.757,125.699V2503.67
						c0,70.035,56.228,119.677,124.757,110.985l666.882-84.583c-22.781-76.685-53.257-137.156-85.235-185.541
						C2411.886,2165.679,2281.844,2164.941,2213.43,1964.997z"/>
				</g>
			</g>
			<polygon style="fill:#FFFFFF;" points="2635.764,1335.068 2635.764,1917.22 1936.347,1952.074 1936.347,1335.068 			"/>
			<path style="fill:#FFFFFF;" d="M2105.305,2498.829c9.164,0,543.699-56.611,543.699-56.611v-416.835l-543.699,45.817V2498.829z"/>
		</g>
		<g>
			<g>
				
					<linearGradient id="SVGID_00000140005383214170019320000017693597409220422796_" gradientUnits="userSpaceOnUse" x1="2712.2529" y1="-180.2428" x2="2768.2471" y2="2017.6057">
					<stop  offset="0" style="stop-color:#FFC444"/>
					<stop  offset="0.9964" style="stop-color:#F36F56"/>
				</linearGradient>
				<path style="fill:url(#SVGID_00000140005383214170019320000017693597409220422796_);" d="M3184.006,903.916v453.163
					c0,45.666-18.751,86.552-48.914,116.226c-29.536,29.044-70.051,46.554-114.738,46.554H2469.21
					c-90.352,0-161.922-72.427-161.922-162.78V903.916c0-54.624,25.934-103.443,67.051-133.151
					c26.91-19.457,59.143-31.356,94.871-31.356h551.144C3110.706,739.409,3184.006,813.564,3184.006,903.916z"/>
				
					<linearGradient id="SVGID_00000138542872093304522960000004751805770603020205_" gradientUnits="userSpaceOnUse" x1="2602.9043" y1="-176.55" x2="2658.8945" y2="2021.1389">
					<stop  offset="0" style="stop-color:#FFC444"/>
					<stop  offset="0.9964" style="stop-color:#F36F56"/>
				</linearGradient>
				<path style="fill:url(#SVGID_00000138542872093304522960000004751805770603020205_);" d="M2804.359,1420.067l-277.523,277.916
					c-6.054,6.054-15.742,7.874-23.686,4.584c-7.909-3.255-13.642-10.988-13.642-19.561v-288.31L2804.359,1420.067z"/>
			</g>
			<g>
				<path style="fill:#FFFFFF;" d="M2902.987,1130.959l-95.076-271.217h-126.885l-66.978,192.342l-105.785,302.745h111.802
					l35.518-123.772h178.431l35.484,123.772h111.838L2902.987,1130.959z M2681.688,1148.543
					c9.589-30.943,18.127-59.098,25.65-83.768c19.737-64.878,32.301-107.776,37.618-128.458c1.785,8.014,4.76,18.915,8.888,32.738
					c3.185,10.638,14.768,48.435,34.819,113.066c6.09,19.597,12.948,42.355,20.576,66.422H2681.688z"/>
			</g>
			
				<linearGradient id="SVGID_00000086671858629355479100000000375930500392621757_" gradientUnits="userSpaceOnUse" x1="2307.2886" y1="1237.5769" x2="3135.063" y2="1237.5769">
				<stop  offset="0" style="stop-color:#FFC444"/>
				<stop  offset="0.9964" style="stop-color:#F36F56"/>
			</linearGradient>
			<path style="opacity:0.3;fill:url(#SVGID_00000086671858629355479100000000375930500392621757_);" d="M3135.063,1473.305
				c-29.536,29.044-70.022,46.554-114.709,46.554H2704.54l-177.311,177.718c-6.054,6.054-15.939,8.077-23.882,4.788
				c-7.909-3.255-13.839-10.785-13.839-19.357v-163.148h-20.298c-90.352,0-161.922-72.427-161.922-162.78V903.916
				c0-54.624,25.934-102.986,67.051-132.694c-4.338,95.741,16.31,252.65,195.789,274.033c15.258,1.82,29.815,3.639,44.129,5.493
				c33.558,4.304,64.493,8.818,93.186,13.823c29.57,5.143,56.604,10.812,81.273,17.321c46.192,12.178,84.028,27.366,114.297,47.731
				c45.946,30.933,74.488,73.633,88.485,136.27C3016.099,1375.982,3056.257,1443.036,3135.063,1473.305z"/>
		</g>
		<g>
			<g>
				
					<linearGradient id="SVGID_00000034774575688021868060000013465644309532039552_" gradientUnits="userSpaceOnUse" x1="2026.0217" y1="1549.1188" x2="1868.541" y2="3165.9231">
					<stop  offset="0.0036" style="stop-color:#E38DDD"/>
					<stop  offset="1" style="stop-color:#9571F6"/>
				</linearGradient>
				<path style="fill:url(#SVGID_00000034774575688021868060000013465644309532039552_);" d="M2444.813,1540.794v453.163
					c0,42.132-15.533,81.453-41.709,110.462c-29.919,33.174-72.886,54.928-121.107,54.928h-551.144
					c-90.352,0-166.195-75.038-166.195-165.39v-453.163c0-57.599,31.079-107.421,76.082-136.571
					c25.58-16.552,57.36-25.327,90.113-25.327h551.144C2372.348,1378.896,2444.813,1450.442,2444.813,1540.794z"/>
				
					<linearGradient id="SVGID_00000036251048850917524010000012891938715264650659_" gradientUnits="userSpaceOnUse" x1="2167.417" y1="1518.9562" x2="2010.5377" y2="3129.5872">
					<stop  offset="0.0036" style="stop-color:#E38DDD"/>
					<stop  offset="1" style="stop-color:#9571F6"/>
				</linearGradient>
				<path style="fill:url(#SVGID_00000036251048850917524010000012891938715264650659_);" d="M2259.155,2030.035v288.31
					c0,8.572-4.658,16.272-12.567,19.561c-7.944,3.289-16.8,1.469-22.853-4.584l-278.28-277.916L2259.155,2030.035z"/>
			</g>
			<g>
				<g>
					<rect x="1767.506" y="1585.183" style="fill:#FFFFFF;" width="477.897" height="75.638"/>
				</g>
				<g>
					<g>
						<path style="fill:#FFFFFF;" d="M2215.627,2025.217c-168.953-39.149-260.317-145.598-307.211-228.001
							c-50.401-88.57-61.147-168.014-61.579-171.356l74.773-9.692l-37.387,4.846l37.375-4.938
							c0.092,0.69,9.857,70.259,53.717,146.233c57.41,99.449,143.987,163.192,257.33,189.451L2215.627,2025.217z"/>
					</g>
					<g>
						<path style="fill:#FFFFFF;" d="M1798.483,2025.217l-17.018-73.457c113.343-26.259,199.92-90.001,257.33-189.451
							c43.862-75.974,53.622-145.543,53.719-146.233l74.759,9.784c-0.432,3.341-11.178,82.785-61.579,171.356
							C2058.8,1879.619,1967.439,1986.068,1798.483,2025.217z"/>
					</g>
				</g>
				<g>
					<rect x="1970.354" y="1509.544" style="fill:#FFFFFF;" width="72.2" height="110.019"/>
				</g>
			</g>
			
				<linearGradient id="SVGID_00000056416965947529306130000001515749064513826201_" gradientUnits="userSpaceOnUse" x1="1564.6575" y1="1871.5781" x2="2403.4917" y2="1871.5781">
				<stop  offset="0.0036" style="stop-color:#E38DDD"/>
				<stop  offset="1" style="stop-color:#9571F6"/>
			</linearGradient>
			<path style="opacity:0.3;fill:url(#SVGID_00000056416965947529306130000001515749064513826201_);" d="M2403.492,2104.419
				c-29.918,33.174-73.274,54.928-121.496,54.928h-22.841v158.998c0,8.572-4.658,16.272-12.567,19.561
				c-7.944,3.289-16.8,2.367-22.853-3.686l-175.529-174.873h-317.354c-90.352,0-166.195-75.038-166.195-165.39v-453.163
				c0-57.599,31.079-108.269,76.082-137.419c-3.289,81.149,12.688,204.326,125.331,253.177c3.325,1.435,7.009,2.799,10.509,4.094
				c18.055,6.789,38.619,11.757,61.609,14.488c6.754,0.805,13.484,1.609,20.028,2.414c29.394,3.604,57.045,7.279,82.94,11.233
				c46.016,7.033,86.559,14.872,122.042,24.565c26.525,7.243,50.19,15.571,71.186,25.37
				c68.203,31.738,108.274,79.604,125.737,157.709C2284.686,2006.409,2324.793,2074.114,2403.492,2104.419z"/>
		</g>
		<g>
			<g>
				
					<linearGradient id="SVGID_00000072985699585574301050000004261912116258611613_" gradientUnits="userSpaceOnUse" x1="2041.2661" y1="1536.0935" x2="1624.2797" y2="2036.4768">
					<stop  offset="0" style="stop-color:#311944"/>
					<stop  offset="1" style="stop-color:#A03976"/>
				</linearGradient>
				<polygon style="fill:url(#SVGID_00000072985699585574301050000004261912116258611613_);" points="1635.217,1941.436 
					2057.115,1595.272 2059.32,1596.345 1640.745,1950.927 				"/>
				
					<linearGradient id="SVGID_00000117650828414762898310000003348978566793187768_" gradientUnits="userSpaceOnUse" x1="1694.8771" y1="1895.8956" x2="1485.2574" y2="2087.4832">
					<stop  offset="0" style="stop-color:#FFC444"/>
					<stop  offset="0.9964" style="stop-color:#F36F56"/>
				</linearGradient>
				<path style="fill:url(#SVGID_00000117650828414762898310000003348978566793187768_);" d="M1609.445,1964.454l16.517-18.04
					l8.598-19.891c1.485-3.436,3.85-6.42,6.858-8.65l4.936-3.662c2.831-2.1,6.262-3.233,9.787-3.233h16.196
					c0,0-2.822,5.28-7.417,6.087c-4.597,0.808-14.206,11.655-14.206,11.655l-1.306,12.716l18.376-13.414l19.587-22.512v12.498
					c0,4.274-1.539,8.405-4.333,11.64l-15.89,18.387c-3.923,4.54-9.322,7.551-15.245,8.505l-3.919,0.63
					c-8.152,1.312-15.405,5.915-20.065,12.729l-11.173,16.344L1609.445,1964.454z"/>
			</g>
			
				<linearGradient id="SVGID_00000169537600721626285420000017767190218090821257_" gradientUnits="userSpaceOnUse" x1="674.8177" y1="2719.7776" x2="724.4052" y2="2388.4424">
				<stop  offset="0" style="stop-color:#FFC444"/>
				<stop  offset="0.9964" style="stop-color:#F36F56"/>
			</linearGradient>
			<path style="fill:url(#SVGID_00000169537600721626285420000017767190218090821257_);" d="M717.816,2563.848
				c0,0-4.579,21.531-8.565,39.667c-3.986,18.135-19.932,32.044-26.908,46.515c-6.976,14.473-10.11-2.469-12.03-12.934
				c-1.922-10.464,0-32.069,8.633-39.464c8.634-7.396,15.196-13.853,14.778-15.347c-0.418-1.495,5.544-26.41,5.544-26.41
				L717.816,2563.848z"/>
			<g>
				
					<linearGradient id="SVGID_00000105405564013774039280000008746721103358871222_" gradientUnits="userSpaceOnUse" x1="944.9847" y1="3298.8982" x2="904.4131" y2="3059.9756">
					<stop  offset="0" style="stop-color:#AA80F9"/>
					<stop  offset="0.9964" style="stop-color:#6165D7"/>
				</linearGradient>
				<path style="fill:url(#SVGID_00000105405564013774039280000008746721103358871222_);" d="M909.201,3211.138
					c-1.088-4.486-0.358-10.486,3.553-14.51c5.272-5.424,14.097-4.966,19.638-2.456c3.229,1.461,5.74,3.799,14.61,22.297
					c9.376,19.55,9.335,22.703,7.826,24.486c-3.067,3.627-11.67,0.951-13.523,0.374c-6.164-1.915-7.669-4.838-20.367-16.73
					C912.33,3216.54,910.193,3215.233,909.201,3211.138z"/>
				
					<linearGradient id="SVGID_00000029740540922125056190000017722195020088732342_" gradientUnits="userSpaceOnUse" x1="921.0151" y1="3206.1536" x2="934.5391" y2="3064.9028">
					<stop  offset="0" style="stop-color:#FFC444"/>
					<stop  offset="0.9964" style="stop-color:#F36F56"/>
				</linearGradient>
				<path style="fill:url(#SVGID_00000029740540922125056190000017722195020088732342_);" d="M915.197,3180.58l2.149,22.661
					c5.161,2.683,8.365,2.467,10.052,0l4.332-22.661H915.197z"/>
				
					<linearGradient id="SVGID_00000124161372434206334330000006770480553170721678_" gradientUnits="userSpaceOnUse" x1="1166.4111" y1="3261.2964" x2="1125.8402" y2="3022.3774">
					<stop  offset="0" style="stop-color:#AA80F9"/>
					<stop  offset="0.9964" style="stop-color:#6165D7"/>
				</linearGradient>
				<path style="fill:url(#SVGID_00000124161372434206334330000006770480553170721678_);" d="M1131.88,3208.308
					c-3.033-3.48-5.15-9.141-3.534-14.515c2.178-7.242,10.22-10.904,16.294-11.23c3.539-0.191,6.845,0.727,23.244,13.054
					c17.33,13.029,18.748,15.845,18.231,18.123c-1.05,4.632-9.918,6.222-11.83,6.564c-6.352,1.142-9.037-0.758-25.785-5.459
					C1137.147,3211.659,1134.648,3211.484,1131.88,3208.308z"/>
				
					<linearGradient id="SVGID_00000018951175202025056390000007685219540139877040_" gradientUnits="userSpaceOnUse" x1="1136.2621" y1="3226.7615" x2="1149.7856" y2="3085.5156">
					<stop  offset="0" style="stop-color:#FFC444"/>
					<stop  offset="0.9964" style="stop-color:#F36F56"/>
				</linearGradient>
				<path style="fill:url(#SVGID_00000018951175202025056390000007685219540139877040_);" d="M1133.386,3170.464l2.149,22.66
					c5.16,2.683,8.365,2.466,10.052,0l4.332-22.66H1133.386z"/>
				
					<linearGradient id="SVGID_00000157994024552530221180000001206655952091335315_" gradientUnits="userSpaceOnUse" x1="961.5617" y1="3187.7166" x2="1171.9323" y2="2397.3242">
					<stop  offset="0" style="stop-color:#444B8C"/>
					<stop  offset="0.9964" style="stop-color:#26264F"/>
				</linearGradient>
				<path style="fill:url(#SVGID_00000157994024552530221180000001206655952091335315_);" d="M909.398,3185.015
					c8.153,0.493,16.306,0.981,24.459,1.475c17.264-84.208,36.218-170.395,57.035-258.41
					c22.816-96.469,46.655-189.986,71.223-280.475c7.787,34.444,15.494,74.729,21.565,120.016
					c9.011,67.218,10.835,118.721,11.27,132.984c2.224,72.915-4.132,81.526-1.127,127.049
					c2.362,35.792,10.114,88.377,36.064,152.246c7.772-0.476,15.545-0.943,23.316-1.414
					c17.011-82.287,31.588-182.286,35.708-296.503c5.051-140.067-7.072-261.43-22.96-357.145
					c-70.625,2.192-141.249,4.39-211.873,6.582c-22.046,49.222-32.09,91.312-37.181,120.908
					c-10.231,59.48-3.957,88.829-11.656,190.166c-3.979,52.37-6.883,60.676-9.767,95.459
					C890.695,2995.553,889.865,3078.744,909.398,3185.015z"/>
				
					<linearGradient id="SVGID_00000155854883464937380510000004288785646084885669_" gradientUnits="userSpaceOnUse" x1="892.2943" y1="3169.2803" x2="1102.6649" y2="2378.8882">
					<stop  offset="0" style="stop-color:#444B8C"/>
					<stop  offset="0.9964" style="stop-color:#26264F"/>
				</linearGradient>
				<path style="opacity:0.3;fill:url(#SVGID_00000155854883464937380510000004288785646084885669_);" d="M956.331,2984.002
					c6.443-68.477-18.264-67.065-6.761-126.223c10.583-54.43,33.029-63.499,49.587-132.985
					c13.289-55.772,3.138-68.006,13.524-92.413c12.831-30.156,50.308-63.075,158.036-77.062
					c-1.543-10.407-3.128-20.611-4.766-30.482c-70.625,2.192-141.249,4.39-211.873,6.582
					c-22.046,49.222-32.09,91.312-37.181,120.908c-10.23,59.48-3.957,88.829-11.656,190.166c-3.979,52.37-6.881,60.676-9.767,95.459
					c-4.779,57.599-5.609,140.79,13.924,247.062c8.153,0.493,16.307,0.981,24.459,1.475c0.502-2.448,1.038-4.936,1.544-7.387
					c-4.116-6.675-7.859-14.171-10.626-22.672C906.893,3101.49,948.28,3069.583,956.331,2984.002z"/>
			</g>
			<g>
				
					<linearGradient id="SVGID_00000097496188949406861290000013877290242611427975_" gradientUnits="userSpaceOnUse" x1="679.4342" y1="2280.1377" x2="1628.0155" y2="2280.1377">
					<stop  offset="0" style="stop-color:#FFC444"/>
					<stop  offset="0.9964" style="stop-color:#F36F56"/>
				</linearGradient>
				<path style="fill:url(#SVGID_00000097496188949406861290000013877290242611427975_);" d="M689.236,2568.144
					c10.518,1.88,21.037,3.755,31.555,5.635c6.497-19.678,15.925-49.346,26.083-85.875c11.614-41.77,17.578-68.764,20.122-78.665
					c10.124-39.392,39.728-94.663,126.98-161.943c-0.867,42.803-1.538,78.017-1.991,102.212
					c-3.628,194.119-3.419,229.355,22.366,248.712c22.42,16.83,34.804-0.396,136.649,1.541
					c92.883,1.765,112.433,16.658,136.02-0.396c38.277-27.678,23.409-93.385,24.009-175.475
					c0.495-67.742,11.646-163.603,60.857-280.62c36.233,3.517,96.823,4.478,165.667-19.159
					c106.918-36.707,167.674-110.04,190.461-140.873c-7.513-10.142-15.026-20.286-22.54-30.428
					c-38.446,16.781-97.864,38.934-172.881,51.193c-130.046,21.25-189.833-6.373-310.596-1.607
					c-69.552,2.747-211.606,8.355-307.668,81.144C637.673,2217.392,682.898,2528.162,689.236,2568.144z"/>
				
					<linearGradient id="SVGID_00000021095518743130771650000013642565112124886679_" gradientUnits="userSpaceOnUse" x1="827.5398" y1="2375.9641" x2="1059.3149" y2="2375.9641">
					<stop  offset="0" style="stop-color:#FFC444"/>
					<stop  offset="0.9964" style="stop-color:#F36F56"/>
				</linearGradient>
				<path style="opacity:0.3;fill:url(#SVGID_00000021095518743130771650000013642565112124886679_);" d="M1026.205,2545.604
					c-5.377-29.984,10.772-42.611,2.254-76.636c-12.02-48.015-50.567-48.385-59.731-89.031
					c-8.738-38.763,23.62-50.397,31.556-111.572c5.833-44.974-2.406-109.987-32.682-120.588
					c-37.667-13.185-93.025,63.596-99.176,72.127c-21.282,29.517-33.649,59.998-40.886,87.235
					c17.232-18.678,38.969-38.665,66.437-59.844c-0.867,42.803-1.538,78.017-1.991,102.212
					c-3.628,194.119-3.419,229.355,22.366,248.712c22.42,16.83,34.804-0.396,136.649,1.541c2.912,0.057,5.544,0.159,8.314,0.238
					C1037.313,2579.858,1028.965,2560.999,1026.205,2545.604z"/>
			</g>
			<g>
				
					<linearGradient id="SVGID_00000119816122321747227300000017443585472926320016_" gradientUnits="userSpaceOnUse" x1="-675.1054" y1="2613.9287" x2="-675.1054" y2="2483.7612" gradientTransform="matrix(-0.827 0.5622 0.5622 0.827 -938.6846 289.0357)">
					<stop  offset="0" style="stop-color:#FFC444"/>
					<stop  offset="0.9964" style="stop-color:#F36F56"/>
				</linearGradient>
				<path style="fill:url(#SVGID_00000119816122321747227300000017443585472926320016_);" d="M1057.371,1946.845
					c0,0-3.144,25.009-12.442,43.182c-8.403,16.422-46.293,24.135-54.103,27.324c-7.811,3.191,12.873,16.003,34.361,19.918
					c21.488,3.914,83.747,3.952,95.556-3.367c11.81-7.318-8.353-8.312-23.36-15.227c-15.008-6.915-21.524-37.871-17.695-51.377
					C1083.516,1953.791,1057.371,1946.845,1057.371,1946.845z"/>
				<g>
					
						<linearGradient id="SVGID_00000108989398764273026390000017490374037554233784_" gradientUnits="userSpaceOnUse" x1="-2841.6565" y1="1117.062" x2="-2884.6599" y2="1007.8411" gradientTransform="matrix(-0.995 0.0996 0.0996 0.995 -1895.803 1193.7489)">
						<stop  offset="0" style="stop-color:#444B8C"/>
						<stop  offset="0.9964" style="stop-color:#3E4177"/>
					</linearGradient>
					<path style="fill:url(#SVGID_00000108989398764273026390000017490374037554233784_);" d="M1097.349,1937.564
						c5.099-8.623,1.847-24.254-8.14-30.98c-7.41-4.991-15.905-3.308-22.095-2.082c-2.865,0.568-22.987,4.806-27.595,19.729
						c-1.464,4.743-0.859,11.016,1.285,15.869c1.105,2.5,3.163,5.574,7.688,11.41c4.016,5.178,3.754,5.009,4.981,6.512
						c2.945,3.609,8.581,9.648,18.684,16.463c0.396-2.769,1.073-6.212,2.311-9.994c0.476-1.455,2.405-7.148,5.679-12.03
						C1086.796,1942.551,1093.363,1944.306,1097.349,1937.564z"/>
					
						<linearGradient id="SVGID_00000129178677587094970960000011879575361867334802_" gradientUnits="userSpaceOnUse" x1="-767.1154" y1="2576.4153" x2="-706.2578" y2="2458.0811" gradientTransform="matrix(-0.827 0.5622 0.5622 0.827 -938.6846 289.0357)">
						<stop  offset="0" style="stop-color:#FFC444"/>
						<stop  offset="0.9964" style="stop-color:#F36F56"/>
					</linearGradient>
					<path style="fill:url(#SVGID_00000129178677587094970960000011879575361867334802_);" d="M1059.354,1967.939
						c0,0,10.864,14.485,29.423,11.472c16.618-2.698,15.457-40.435,4.01-47.365c-3.818-2.312-11.061-2.727-16.708-0.542
						c-3.337,1.29-4.359,2.827-9.849,4.83c-5.064,1.847-6.587,1.412-8.027,2.882c-1.803,1.839-2.849,6.024,1.481,16.673
						c-3.501-2.926-7.45-3.795-10.04-2.253c-0.412,0.246-1.486,1.138-2.018,2.383
						C1045.7,1960.529,1050.138,1965.622,1059.354,1967.939z"/>
					
						<linearGradient id="SVGID_00000161617592682901657100000008448906888076365727_" gradientUnits="userSpaceOnUse" x1="3425.825" y1="2582.2986" x2="3392.6462" y2="2498.031" gradientTransform="matrix(0.827 -0.5622 0.5622 0.827 -3149.7031 1791.1674)">
						<stop  offset="0" style="stop-color:#444B8C"/>
						<stop  offset="0.9964" style="stop-color:#3E4177"/>
					</linearGradient>
					<path style="fill:url(#SVGID_00000161617592682901657100000008448906888076365727_);" d="M1055.582,1946.606
						c0,0,7.083,13.122,11.024,16.218c3.943,3.097,12.825,4.985,21.447,0.28c8.623-4.705,13.407-9.113,13.407-9.113
						s3.529,18.183,1.382,20.429c-2.147,2.248-18.046,11.982-22.614,11.293c-4.569-0.69-15.725-9.692-18.307-15.264
						c-2.582-5.572-5.691-20.04-5.691-20.04L1055.582,1946.606z"/>
				</g>
			</g>
		</g>
		<g>
			
				<linearGradient id="SVGID_00000091701432263135781050000014789472313682177713_" gradientUnits="userSpaceOnUse" x1="3210.1003" y1="1014.3979" x2="3140.3467" y2="2015.3596" gradientTransform="matrix(0.6814 -0.7319 0.7319 0.6814 -1278.5504 2252.8125)">
				<stop  offset="0" style="stop-color:#FFC444"/>
				<stop  offset="0.9964" style="stop-color:#F36F56"/>
			</linearGradient>
			<path style="fill:url(#SVGID_00000091701432263135781050000014789472313682177713_);" d="M2287.663,512.76l-60.564,98.199
				l-9.203,14.9c0,0-3.905-1.301-11.226-3.705c-3.64-1.31-8.223-2.604-13.594-4.184c-5.359-1.696-11.606-3.227-18.625-5.029
				c-14.03-3.406-31.268-7.177-51.382-9.852c-20.081-2.676-42.997-4.572-68.157-4.367c-25.129,0.17-52.453,2.356-81.089,7.222
				c-14.275,2.697-28.958,5.59-43.694,9.743c-1.854,0.48-3.724,0.977-5.578,1.457c-1.851,0.547-3.7,1.126-5.553,1.672
				c-3.701,1.127-7.437,2.253-11.188,3.364c-7.375,2.599-14.974,4.923-22.386,7.871c-29.968,11.139-59.856,25.902-88.654,43.82
				c-14.365,9.008-28.348,18.946-42.047,29.437l-10.072,8.175c-1.657,1.367-3.429,2.723-5.004,4.071l-4.737,4.126l-4.754,4.111
				c-1.572,1.38-3.116,2.661-4.86,4.363l-10.171,9.587l-1.282,1.204l-1.541-0.251l-1.077-0.683l-0.143,0.154l-1.259,2.986
				l-4.168,5.071c-3.068,3.09-5.98,6.358-8.877,9.608l-8.784,9.696c-2.845,3.331-5.634,6.68-8.48,9.977
				c-11.246,13.318-21.935,27.089-31.639,41.426l-3.685,5.362l-3.491,5.447c-2.321,3.626-4.688,7.241-6.941,10.898
				c-4.372,7.409-8.86,14.708-12.828,22.268c-4.206,7.402-7.872,15.052-11.693,22.59c-1.817,3.807-3.534,7.644-5.285,11.448
				c-0.876,1.902-1.751,3.805-2.628,5.707c-0.808,1.933-1.6,3.849-2.393,5.765c-6.656,15.288-12.062,30.781-17.028,46.108
				c-2.323,7.716-4.701,15.319-6.612,22.97c-2.129,7.609-3.759,15.235-5.512,22.749c-6.555,30.121-9.965,59.3-11.333,86.356
				c-1.348,27.103-0.421,52.105,1.644,74.202c2.066,22.096,5.349,41.235,8.478,56.936c1.67,7.821,3.114,14.857,4.684,20.795
				c1.522,5.988,2.716,11.095,4.008,15.304c0.641,2.195,1.189,4.114,1.663,5.77c1.002,3.49-0.556,7.156-3.64,8.888
				c-0.422,0.247-0.862,0.445-1.336,0.611l-0.606,0.204c-3.925,1.332-8.219-0.65-9.732-4.52c-0.636-1.584-1.364-3.445-2.203-5.568
				c-1.649-3.997-3.443-9.249-5.582-15.364c-2.289-6.127-4.43-13.203-6.932-21.128c-4.773-15.89-10.043-35.438-14.404-58.297
				c-4.31-22.844-7.779-48.996-9.074-77.793c-1.261-28.765-0.596-60.182,3.389-93.208c1.095-8.252,2.088-16.632,3.623-25.048
				c1.288-8.458,3.054-16.949,4.816-25.538c3.776-17.107,8.102-34.565,13.771-51.987c0.684-2.177,1.351-4.37,2.051-6.565
				c0.75-2.179,1.499-4.359,2.266-6.521c1.533-4.36,3.014-8.768,4.613-13.13c3.399-8.665,6.66-17.49,10.54-26.123
				c3.61-8.756,7.775-17.317,11.868-26.006c2.115-4.298,4.364-8.535,6.561-12.852l3.347-6.411l3.532-6.336
				c9.308-17.038,19.844-33.576,31.07-49.757c2.853-4.026,5.723-8.036,8.576-12.062l8.983-11.779
				c2.97-3.98,6.146-7.771,9.288-11.592l4.729-5.765l2.348-2.866l2.769-3.112l9.228-10.497c1.428-1.707,3.265-3.611,5.02-5.461
				l5.297-5.588l5.314-5.571c1.771-1.867,3.55-3.505,5.324-5.273c3.552-3.472,7.102-6.977,10.654-10.448
				c14.55-13.535,29.601-26.508,45.28-38.542c31.364-23.972,64.767-44.604,98.913-61.158c8.455-4.31,17.15-7.949,25.654-11.83
				c4.308-1.777,8.599-3.536,12.892-5.296c2.139-0.855,4.293-1.727,6.414-2.597c2.156-0.806,4.315-1.578,6.472-2.384
				c17.115-6.606,34.315-11.791,51.164-16.632c33.831-9.141,66.688-14.936,97.307-18.084c30.634-3.166,59.032-3.552,84.184-2.614
				c25.152,0.938,47.033,3.533,65.009,6.136c8.974,1.384,17,2.62,23.905,4.061c6.935,1.342,12.871,2.454,17.614,3.609
				C2248.716,501.983,2287.663,512.76,2287.663,512.76z"/>
			
				<linearGradient id="SVGID_00000178896919298306549760000017622255227085486509_" gradientUnits="userSpaceOnUse" x1="3153.0884" y1="1079.4788" x2="3094.2729" y2="1923.4789" gradientTransform="matrix(0.6814 -0.7319 0.7319 0.6814 -1278.5504 2252.8125)">
				<stop  offset="0" style="stop-color:#FFC444"/>
				<stop  offset="0.9964" style="stop-color:#F36F56"/>
			</linearGradient>
			<path style="opacity:0.3;fill:url(#SVGID_00000178896919298306549760000017622255227085486509_);" d="M2223.56,607.377
				c1.299,1.112,2.484,2.312,3.539,3.582l-9.203,14.9c0,0-3.905-1.301-11.226-3.705c-3.64-1.31-8.223-2.604-13.594-4.184
				c-5.359-1.696-11.606-3.227-18.625-5.029c-14.03-3.406-31.268-7.177-51.382-9.852c-20.081-2.676-42.997-4.572-68.157-4.367
				c-25.129,0.17-52.453,2.356-81.089,7.222c-14.275,2.697-28.958,5.59-43.694,9.743c-1.854,0.48-3.724,0.977-5.578,1.457
				c-1.851,0.547-3.7,1.126-5.553,1.672c-3.701,1.127-7.437,2.253-11.188,3.364c-7.375,2.599-14.974,4.923-22.386,7.871
				c-29.968,11.139-59.856,25.902-88.654,43.82c-14.365,9.008-28.348,18.946-42.047,29.437l-10.072,8.175
				c-1.657,1.367-3.429,2.723-5.004,4.071l-4.737,4.126l-4.754,4.111c-1.572,1.38-3.116,2.661-4.86,4.363l-10.171,9.587
				l-1.282,1.204l-1.541-0.251l-1.077-0.683l-0.143,0.154l-1.259,2.986l-4.168,5.071c-3.068,3.09-5.98,6.358-8.877,9.608
				l-8.784,9.696c-2.845,3.331-5.634,6.68-8.48,9.977c-11.246,13.318-21.935,27.089-31.639,41.426l-3.685,5.362l-3.491,5.447
				c-2.321,3.626-4.688,7.241-6.941,10.898c-4.372,7.409-8.86,14.708-12.828,22.268c-4.206,7.402-7.872,15.052-11.693,22.59
				c-1.817,3.807-3.534,7.644-5.285,11.448c-0.876,1.902-1.751,3.805-2.628,5.707c-0.808,1.933-1.6,3.849-2.393,5.765
				c-6.656,15.288-12.062,30.781-17.028,46.108c-2.323,7.716-4.701,15.319-6.612,22.97c-2.129,7.609-3.759,15.235-5.512,22.749
				c-6.555,30.121-9.965,59.3-11.333,86.356c-1.348,27.103-0.421,52.105,1.644,74.202c2.066,22.096,5.349,41.235,8.478,56.936
				c1.67,7.821,3.114,14.857,4.684,20.795c1.522,5.988,2.716,11.095,4.008,15.304c0.641,2.195,1.189,4.114,1.663,5.77
				c1.002,3.49-0.556,7.156-3.64,8.888c-15.28-55.467-71.867-302.467,75.182-484.809
				C1817.045,575.127,2113.75,512.474,2223.56,607.377z"/>
			
				<linearGradient id="SVGID_00000094603664336439880270000000278612002983819913_" gradientUnits="userSpaceOnUse" x1="3643.146" y1="1043.9149" x2="3572.9258" y2="2051.5706" gradientTransform="matrix(0.6814 -0.7319 0.7319 0.6814 -1278.5504 2252.8125)">
				<stop  offset="0" style="stop-color:#FFC444"/>
				<stop  offset="0.9964" style="stop-color:#F36F56"/>
			</linearGradient>
			<polygon style="fill:url(#SVGID_00000094603664336439880270000000278612002983819913_);" points="2319.649,478.164 
				2439.867,706.436 2122.331,658.877 			"/>
			
				<linearGradient id="SVGID_00000169544437394096088820000002609046152532282774_" gradientUnits="userSpaceOnUse" x1="3643.146" y1="1043.9149" x2="3572.9258" y2="2051.5706" gradientTransform="matrix(0.6814 -0.7319 0.7319 0.6814 -1278.5504 2252.8125)">
				<stop  offset="0" style="stop-color:#FFC444"/>
				<stop  offset="0.9964" style="stop-color:#F36F56"/>
			</linearGradient>
			<polygon style="opacity:0.3;fill:url(#SVGID_00000169544437394096088820000002609046152532282774_);" points="2319.649,478.164 
				2439.867,706.436 2122.331,658.877 			"/>
			
				<linearGradient id="SVGID_00000068645299818855699310000007732810974401889965_" gradientUnits="userSpaceOnUse" x1="3659.4521" y1="1045.639" x2="3589.3123" y2="2052.1448" gradientTransform="matrix(0.6814 -0.7319 0.7319 0.6814 -1278.5504 2252.8125)">
				<stop  offset="0" style="stop-color:#FFC444"/>
				<stop  offset="0.9964" style="stop-color:#F36F56"/>
			</linearGradient>
			<polygon style="fill:url(#SVGID_00000068645299818855699310000007732810974401889965_);" points="2330.81,466.174 
				2441.063,705.151 2134.45,647.778 			"/>
		</g>
		<g>
			
				<linearGradient id="SVGID_00000070808815192909466330000001778083905889138600_" gradientUnits="userSpaceOnUse" x1="-1658.0662" y1="3051.1604" x2="-1715.8538" y2="3880.4109" gradientTransform="matrix(-0.5798 0.8148 -0.8148 -0.5798 4607.4092 5281.3022)">
				<stop  offset="0.0036" style="stop-color:#E38DDD"/>
				<stop  offset="1" style="stop-color:#9571F6"/>
			</linearGradient>
			<path style="fill:url(#SVGID_00000070808815192909466330000001778083905889138600_);" d="M2568.802,2297.417l39.101-87.223
				l5.944-13.236c0,0,3.348,0.645,9.622,1.826c3.132,0.682,7.037,1.247,11.62,1.963c4.585,0.812,9.883,1.393,15.844,2.112
				c11.893,1.277,26.461,2.505,43.272,2.522c16.784,0.021,35.812-0.906,56.456-3.801c20.621-2.864,42.828-7.621,65.822-14.722
				c11.433-3.762,23.179-7.73,34.833-12.739c1.47-0.595,2.953-1.206,4.424-1.802c1.461-0.649,2.917-1.326,4.38-1.975
				c2.918-1.327,5.864-2.657,8.825-3.976c5.776-2.935,11.765-5.667,17.534-8.891c23.407-12.398,46.356-27.764,68.068-45.603
				c10.822-8.956,21.231-18.635,31.345-28.737l7.387-7.806c1.213-1.303,2.522-2.608,3.669-3.886l3.444-3.903l3.459-3.892
				c1.142-1.304,2.271-2.524,3.52-4.11l7.314-8.977l0.923-1.128l1.585,0.247l1.251,0.652l0.101-0.142l0.418-2.797l2.728-4.721
				c2.185-2.87,4.149-5.923,6.177-8.906l6.127-8.942c1.976-3.044,3.885-6.111,5.866-9.127c7.793-12.158,15.072-24.634,21.488-37.463
				l2.441-4.807l2.275-4.854c1.513-3.23,3.064-6.457,4.519-9.704c2.788-6.56,5.683-13.041,8.123-19.681
				c2.652-6.536,4.834-13.217,7.155-19.822c1.08-3.324,2.074-6.662,3.1-9.976c0.514-1.657,1.026-3.316,1.54-4.973
				c0.454-1.675,0.897-3.335,1.34-4.995c3.81-13.278,6.571-26.59,8.988-39.718c1.072-6.589,2.2-13.092,2.941-19.584
				c0.924-6.481,1.436-12.921,2.061-19.283c2.119-25.451,1.757-49.788-0.052-72.159c-1.831-22.408-5.302-42.843-9.394-60.769
				c-4.092-17.925-8.864-33.289-13.135-45.847c-2.22-6.243-4.168-11.865-6.102-16.572c-1.9-4.753-3.433-8.819-4.951-12.136
				c-0.765-1.734-1.423-3.25-1.992-4.559c-1.201-2.758-0.319-5.938,2.026-7.695c0.32-0.249,0.66-0.459,1.031-0.647l0.476-0.233
				c3.08-1.52,6.821-0.357,8.483,2.657c0.694,1.232,1.494,2.681,2.413,4.334c1.788,3.104,3.831,7.223,6.251,12.015
				c2.544,4.785,5.07,10.365,7.984,16.603c5.643,12.534,12.09,28.019,18.15,46.322c6.017,18.297,11.701,39.401,15.886,62.914
				c4.154,23.49,7.013,49.367,7.32,76.926c-0.005,6.896,0.088,13.888-0.261,20.967c-0.141,7.087-0.671,14.252-1.188,21.498
				c-1.247,14.461-2.908,29.269-5.676,44.193c-0.326,1.862-0.635,3.736-0.973,5.614c-0.38,1.871-0.759,3.743-1.155,5.602
				c-0.787,3.747-1.525,7.529-2.366,11.285c-1.852,7.485-3.574,15.088-5.826,22.599c-2.016,7.584-4.509,15.066-6.929,22.647
				c-1.271,3.759-2.66,7.484-3.996,11.267l-2.054,5.629l-2.214,5.587c-5.798,15.004-12.659,29.729-20.126,44.237
				c-1.907,3.616-3.829,7.22-5.737,10.837l-6.101,10.648c-2.008,3.592-4.206,7.049-6.372,10.528l-3.259,5.248l-1.618,2.608
				l-1.937,2.856l-6.442,9.622c-0.988,1.557-2.29,3.32-3.531,5.03l-3.745,5.164l-3.761,5.152c-1.252,1.725-2.536,3.263-3.802,4.908
				c-2.541,3.237-5.077,6.5-7.618,9.737c-10.484,12.695-21.44,24.981-33.014,36.566c-23.163,23.09-48.363,43.658-74.615,60.956
				c-6.478,4.457-13.225,8.388-19.789,12.497c-3.346,1.926-6.68,3.836-10.015,5.747c-1.664,0.934-3.339,1.884-4.987,2.829
				c-1.684,0.895-3.373,1.764-5.057,2.659c-13.342,7.281-26.907,13.405-40.222,19.208c-26.797,11.176-53.157,19.497-77.965,25.402
				c-24.819,5.921-48.102,9.317-68.863,11.273c-20.761,1.956-39.015,2.197-54.062,2.007c-7.521-0.164-14.247-0.309-20.076-0.744
				c-5.842-0.351-10.837-0.621-14.859-1.055C2601.96,2302.047,2568.802,2297.417,2568.802,2297.417z"/>
			
				<linearGradient id="SVGID_00000116194178455177519000000016366958938783804820_" gradientUnits="userSpaceOnUse" x1="-1705.2983" y1="3105.0771" x2="-1754.0242" y2="3804.2917" gradientTransform="matrix(-0.5798 0.8148 -0.8148 -0.5798 4607.4092 5281.3022)">
				<stop  offset="0.0036" style="stop-color:#E38DDD"/>
				<stop  offset="1" style="stop-color:#9571F6"/>
			</linearGradient>
			<path style="opacity:0.3;fill:url(#SVGID_00000116194178455177519000000016366958938783804820_);" d="M2611.198,2212.752
				c-1.187-0.773-2.291-1.63-3.295-2.558l5.944-13.236c0,0,3.348,0.645,9.622,1.826c3.132,0.682,7.037,1.247,11.62,1.963
				c4.585,0.812,9.883,1.393,15.844,2.112c11.893,1.277,26.461,2.505,43.272,2.522c16.784,0.021,35.812-0.906,56.456-3.801
				c20.621-2.864,42.828-7.621,65.822-14.722c11.433-3.762,23.179-7.73,34.833-12.739c1.47-0.595,2.953-1.206,4.424-1.802
				c1.461-0.649,2.917-1.326,4.38-1.975c2.918-1.327,5.864-2.657,8.825-3.976c5.776-2.935,11.765-5.667,17.534-8.891
				c23.407-12.398,46.356-27.764,68.068-45.603c10.822-8.956,21.231-18.635,31.345-28.737l7.387-7.806
				c1.213-1.303,2.522-2.608,3.669-3.886l3.444-3.903l3.459-3.892c1.142-1.304,2.271-2.524,3.52-4.11l7.314-8.977l0.923-1.128
				l1.585,0.247l1.251,0.652l0.101-0.142l0.418-2.797l2.728-4.721c2.185-2.87,4.149-5.923,6.177-8.906l6.127-8.942
				c1.976-3.044,3.885-6.111,5.866-9.127c7.793-12.158,15.072-24.634,21.488-37.463l2.441-4.807l2.275-4.854
				c1.513-3.23,3.064-6.457,4.519-9.704c2.788-6.56,5.683-13.041,8.123-19.681c2.652-6.536,4.834-13.217,7.155-19.822
				c1.08-3.324,2.074-6.662,3.1-9.976c0.514-1.657,1.026-3.316,1.54-4.973c0.454-1.675,0.897-3.335,1.34-4.995
				c3.81-13.278,6.571-26.59,8.988-39.718c1.072-6.589,2.2-13.092,2.941-19.584c0.924-6.481,1.436-12.921,2.061-19.283
				c2.119-25.451,1.757-49.788-0.052-72.159c-1.831-22.408-5.302-42.843-9.394-60.769c-4.092-17.925-8.864-33.289-13.135-45.847
				c-2.22-6.243-4.168-11.865-6.102-16.572c-1.9-4.753-3.433-8.819-4.951-12.136c-0.765-1.734-1.423-3.25-1.992-4.559
				c-1.201-2.758-0.319-5.938,2.026-7.695c18.563,43.903,91.817,240.648-9.199,406.36
				C2948.595,2195.176,2711.681,2278.8,2611.198,2212.752z"/>
			
				<linearGradient id="SVGID_00000127005196547535254950000002300335050036161182_" gradientUnits="userSpaceOnUse" x1="-1299.304" y1="3075.6135" x2="-1357.4789" y2="3910.4224" gradientTransform="matrix(-0.5798 0.8148 -0.8148 -0.5798 4607.4092 5281.3022)">
				<stop  offset="0.0036" style="stop-color:#E38DDD"/>
				<stop  offset="1" style="stop-color:#9571F6"/>
			</linearGradient>
			<polygon style="fill:url(#SVGID_00000127005196547535254950000002300335050036161182_);" points="2546.28,2329.301 
				2422.792,2154.835 2688.762,2159.479 			"/>
			
				<linearGradient id="SVGID_00000108305802809957608230000005440620744485927051_" gradientUnits="userSpaceOnUse" x1="-1299.304" y1="3075.6135" x2="-1357.4789" y2="3910.4224" gradientTransform="matrix(-0.5798 0.8148 -0.8148 -0.5798 4607.4092 5281.3022)">
				<stop  offset="0.0036" style="stop-color:#E38DDD"/>
				<stop  offset="1" style="stop-color:#9571F6"/>
			</linearGradient>
			<polygon style="opacity:0.3;fill:url(#SVGID_00000108305802809957608230000005440620744485927051_);" points="2546.28,2329.301 
				2422.792,2154.835 2688.762,2159.479 			"/>
			
				<linearGradient id="SVGID_00000139984474370608686260000014076843510166791349_" gradientUnits="userSpaceOnUse" x1="-1285.795" y1="3077.042" x2="-1343.9036" y2="3910.8982" gradientTransform="matrix(-0.5798 0.8148 -0.8148 -0.5798 4607.4092 5281.3022)">
				<stop  offset="0.0036" style="stop-color:#E38DDD"/>
				<stop  offset="1" style="stop-color:#9571F6"/>
			</linearGradient>
			<polygon style="fill:url(#SVGID_00000139984474370608686260000014076843510166791349_);" points="2538.412,2340.359 
				2421.948,2156.02 2680.012,2169.908 			"/>
		</g>
	</g>
</g>
</svg>
